<?xml version="1.0" encoding="UTF-8"?> <svg xmlns="http://www.w3.org/2000/svg" id="Calque_1" data-name="Calque 1" viewBox="0 0 555 437"><defs><style>.cls-1{fill:#ebf4ff;}</style></defs><path class="cls-1" d="M545.18,218.12h-12c0,50.09-87.19,127.8-243.26,133V84.93c180.78,4,243.26,91.85,243.26,91.85h.08c-18-42.43-73.54-112.16-243.35-115.73V31.35h27.38V11.14H242.1V31.35h27.37V61c-188.86,1.91-242.1,89-257,132.7a80.24,80.24,0,0,0-.66,49.42C25.54,287.26,77.12,375,269.47,378v29.62H242.1v20.21h75.21V407.65H289.93V378C547.18,374,545.18,218.12,545.18,218.12ZM269.47,351.41C105.16,350.24,26.62,264.3,26.62,224.29S79.7,87.34,269.47,84.77Z"></path></svg> 